<?xml version="1.0" encoding="UTF-8"?><svg version="1.2" baseProfile="tiny-ps" xmlns="http://www.w3.org/2000/svg" viewBox="0 0 512 512"><defs><linearGradient id="b" x1="185.29" y1="392.75" x2="191.07" y2="392.75" gradientUnits="userSpaceOnUse"><stop offset="0" stop-color="#ff6c96" stop-opacity=".9"/><stop offset=".05" stop-color="#ff5474" stop-opacity=".93"/><stop offset=".12" stop-color="#ff4057" stop-opacity=".96"/><stop offset=".18" stop-color="#ff3041" stop-opacity=".98"/><stop offset=".26" stop-color="#ff2531" stop-opacity=".99"/><stop offset=".36" stop-color="#ff1e27" stop-opacity="1"/><stop offset=".54" stop-color="#ff1d25"/><stop offset=".64" stop-color="#ff2029" stop-opacity=".99"/><stop offset=".73" stop-color="#ff2a38" stop-opacity=".97"/><stop offset=".81" stop-color="#ff3b51" stop-opacity=".93"/><stop offset=".9" stop-color="#ff5474" stop-opacity=".88"/><stop offset=".98" stop-color="#ff73a0" stop-opacity=".82"/><stop offset="1" stop-color="#ff7bac" stop-opacity=".8"/></linearGradient><linearGradient id="c" y1="416.73" x2="207.46" y2="416.73" href="#b"/><linearGradient id="d" x1="158.51" y1="373.61" x2="164.38" y2="373.61" href="#b"/><linearGradient id="e" x1="149.31" y1="416.41" x2="173.23" y2="416.41" href="#b"/><linearGradient id="f" x1="158.51" y1="400.29" x2="164.38" y2="400.29" href="#b"/><linearGradient id="g" x1="219.51" x2="225.29" href="#b"/><linearGradient id="h" x1="219.51" y1="416.73" x2="241.68" y2="416.73" href="#b"/><linearGradient id="i" x1="253.74" y1="402.59" x2="260.52" y2="402.59" href="#b"/><linearGradient id="j" x1="277.02" y1="402.59" x2="292.26" y2="402.59" href="#b"/><linearGradient id="k" x1="260.52" y1="388.33" x2="282.77" y2="388.33" href="#b"/><linearGradient id="l" x1="304.32" y1="389.42" x2="343.4" y2="389.42" gradientUnits="userSpaceOnUse"><stop offset="0" stop-color="#ff6c96" stop-opacity=".9"/><stop offset=".05" stop-color="#ff5474" stop-opacity=".93"/><stop offset=".12" stop-color="#ff4057" stop-opacity=".96"/><stop offset=".18" stop-color="#ff3041" stop-opacity=".98"/><stop offset=".26" stop-color="#ff2531" stop-opacity=".99"/><stop offset=".36" stop-color="#ff1e27" stop-opacity="1"/><stop offset=".54" stop-color="#ff1d25"/><stop offset=".64" stop-color="#ff2029" stop-opacity=".99"/><stop offset=".73" stop-color="#ff2a38" stop-opacity=".97"/><stop offset=".81" stop-color="#ff3b51" stop-opacity=".93"/><stop offset=".9" stop-color="#ff5474" stop-opacity=".88"/><stop offset=".98" stop-color="#ff73a0" stop-opacity=".82"/><stop offset="1" stop-color="#ff7bac" stop-opacity=".8"/></linearGradient><linearGradient id="m" y1="415.58" x2="343.35" y2="415.58" href="#l"/><linearGradient id="n" x1="337.15" y1="402.56" y2="402.56" href="#l"/><linearGradient id="o" y1="402.39" x2="310.57" y2="402.39" href="#l"/></defs><polygon points="132.22 381.57 419.71 381.57 379.78 424.3 92.29 424.3 132.22 381.57" fill="#23d1ae" opacity=".64"/><polygon points="132.22 46 132.22 381.57 92.29 424.3 92.29 85.93 132.22 46" fill="#23d1ae" opacity=".94"/><path d="M103.49,293.21l55.67,148.26,74.86-105.8,94.58,130.34,33.23-62.23,29.66-56.95,2.03-13.43-25.53-168.59c-.1-.53-1.72-3.4-1.72-3.4l-32.76,220.64-5.52,64.41,3.69-56.74c.22-3.38-3.7-8.91-3.7-8.91l-46.91-41.14-71.11-59.97-20.49,49.98-24.83,68.23.76-9.13-.16-3.83-33.07-57.28-.1-.17-28.56-34.27Z" fill="#2a6cde" opacity=".84"/><polygon points="419.71 46 419.71 381.57 379.78 424.3 379.78 85.93 419.71 46" fill="#23d1ae" opacity=".94"/><g opacity=".84"><polygon points="185.29 372.14 191.07 366.53 191.07 414.57 185.29 418.97 185.29 372.14" fill="url(#b)"/></g><g opacity=".74"><polygon points="207.46 414.49 191.07 414.49 185.29 418.97 202.8 418.97 207.46 414.49" fill="url(#c)"/></g><g opacity=".74"><polygon points="158.51 371.08 164.38 366.48 164.38 376.25 158.51 380.74 158.51 371.08" fill="url(#d)"/></g><g opacity=".74"><polygon points="153.68 413.85 173.23 413.85 168.11 418.97 149.31 418.97 153.68 413.85" fill="url(#e)"/></g><g opacity=".84"><polygon points="158.51 387.29 164.38 382.35 164.38 414.31 158.51 418.22 158.51 387.29" fill="url(#f)"/></g><g opacity=".84"><polygon points="219.51 372.14 225.29 366.53 225.29 414.57 219.51 418.97 219.51 372.14" fill="url(#g)"/></g><g opacity=".74"><polygon points="241.68 414.49 225.29 414.49 219.51 418.97 237.02 418.97 241.68 414.49" fill="url(#h)"/></g><g opacity=".84"><polygon points="253.74 390.34 260.52 386.2 260.52 412.59 253.74 418.97 253.74 390.34" fill="url(#i)"/></g><g opacity=".84"><polygon points="292.26 397.76 292.26 413.34 285.36 418.97 285.25 402.59 277.02 390.45 282.77 386.2 292.26 397.76" fill="url(#j)"/></g><g opacity=".74"><polygon points="282.77 386.2 277.02 390.45 260.52 390.45 260.52 386.2 282.77 386.2" fill="url(#k)"/></g><g opacity=".74"><polygon points="310.57 385.98 343.4 386.14 337.15 392.87 304.32 392.71 310.57 385.98" fill="url(#l)"/></g><g opacity=".74"><polygon points="310.52 412.18 343.35 412.18 337.15 418.97 304.32 418.81 310.52 412.18" fill="url(#m)"/></g><g opacity=".84"><polygon points="343.4 386.14 343.35 412.34 337.15 418.97 337.15 392.87 343.4 386.14" fill="url(#n)"/></g><g opacity=".84"><polygon points="310.57 385.98 310.52 412.18 304.32 418.81 304.32 392.71 310.57 385.98" fill="url(#o)"/></g></svg>